<?xml version="1.0" standalone="no"?><svg xmlns="http://www.w3.org/2000/svg" viewBox="0 0 1440 320"><path fill="#e5dbf2" fill-opacity="1" d="M0,64L20,64C40,64,80,64,120,90.7C160,117,200,171,240,170.7C280,171,320,117,360,80C400,43,440,21,480,32C520,43,560,85,600,112C640,139,680,149,720,160C760,171,800,181,840,170.7C880,160,920,128,960,138.7C1000,149,1040,203,1080,218.7C1120,235,1160,213,1200,170.7C1240,128,1280,64,1320,74.7C1360,85,1400,171,1420,213.3L1440,256L1440,0L1420,0C1400,0,1360,0,1320,0C1280,0,1240,0,1200,0C1160,0,1120,0,1080,0C1040,0,1000,0,960,0C920,0,880,0,840,0C800,0,760,0,720,0C680,0,640,0,600,0C560,0,520,0,480,0C440,0,400,0,360,0C320,0,280,0,240,0C200,0,160,0,120,0C80,0,40,0,20,0L0,0Z"></path></svg>