<?xml version="1.0" standalone="no"?><svg xmlns="http://www.w3.org/2000/svg" viewBox="0 0 1440 320"><path fill="#e5def2" fill-opacity="1" d="M0,128L26.7,133.3C53.3,139,107,149,160,149.3C213.3,149,267,139,320,122.7C373.3,107,427,85,480,90.7C533.3,96,587,128,640,149.3C693.3,171,747,181,800,197.3C853.3,213,907,235,960,208C1013.3,181,1067,107,1120,112C1173.3,117,1227,203,1280,250.7C1333.3,299,1387,309,1413,314.7L1440,320L1440,0L1413.3,0C1386.7,0,1333,0,1280,0C1226.7,0,1173,0,1120,0C1066.7,0,1013,0,960,0C906.7,0,853,0,800,0C746.7,0,693,0,640,0C586.7,0,533,0,480,0C426.7,0,373,0,320,0C266.7,0,213,0,160,0C106.7,0,53,0,27,0L0,0Z"></path></svg>